<svg xmlns="http://www.w3.org/2000/svg" width="286" height="336" viewBox="0 0 286 336">
<g>
<path d="M 140.66 332.25 C139.34,329.33 139.30,328.93 140.48,330.44 C141.32,331.51 142.00,332.79 142.00,333.30 C142.00,333.80 142.65,333.96 143.45,333.66 C144.42,333.29 144.71,333.58 144.34,334.55 C143.45,336.87 142.49,336.26 140.66,332.25 ZM 125.50 330.30 C127.70,329.42 130.95,327.63 132.73,326.31 C134.87,324.73 135.77,324.44 135.39,325.43 C134.78,327.02 125.08,332.04 122.81,331.95 C122.09,331.92 123.30,331.18 125.50,330.30 ZM 145.04 331.78 C144.93,329.99 148.51,324.00 149.69,324.00 C150.41,324.00 151.00,324.48 151.00,325.06 C151.00,325.64 150.57,325.85 150.04,325.53 C149.51,325.20 148.18,326.64 147.09,328.72 C145.99,330.80 145.07,332.18 145.04,331.78 ZM 161.35 329.43 C161.19,326.57 161.25,326.58 162.90,329.75 C163.82,331.52 163.80,332.00 162.79,332.00 C162.08,332.00 161.43,330.84 161.35,329.43 ZM 156.44 329.44 C154.61,327.98 154.64,327.96 157.00,329.08 C160.06,330.54 160.63,331.00 159.36,331.00 C158.82,331.00 157.51,330.30 156.44,329.44 ZM 123.07 329.50 C123.07,328.95 123.71,327.38 124.50,326.00 C125.29,324.62 125.93,323.95 125.93,324.50 C125.93,325.05 125.29,326.62 124.50,328.00 C123.71,329.38 123.07,330.05 123.07,329.50 ZM 137.62 326.46 C136.66,323.95 136.94,323.30 138.12,325.33 C138.71,326.33 138.97,327.36 138.72,327.62 C138.46,327.88 137.97,327.36 137.62,326.46 ZM 108.28 323.01 C110.05,320.99 111.69,319.50 111.93,319.68 C112.16,319.87 111.14,321.28 109.66,322.83 C108.18,324.37 107.20,325.87 107.49,326.15 C107.77,326.44 107.34,326.67 106.53,326.67 C105.57,326.67 106.16,325.43 108.28,323.01 ZM 178.34 326.32 C178.71,325.95 178.00,324.49 176.76,323.07 L 174.50 320.50 L 177.22 322.90 C179.60,324.99 180.11,327.00 178.27,327.00 C177.94,327.00 177.97,326.70 178.34,326.32 ZM 111.81 325.32 C112.53,325.03 113.40,325.06 113.73,325.40 C114.06,325.73 113.47,325.96 112.42,325.92 C111.25,325.87 111.01,325.64 111.81,325.32 ZM 170.50 325.00 C169.24,324.46 169.05,324.14 170.00,324.14 C170.82,324.14 172.40,324.53 173.50,325.00 C174.76,325.54 174.95,325.86 174.00,325.86 C173.18,325.86 171.60,325.47 170.50,325.00 ZM 118.47 323.02 C120.61,321.92 122.55,321.22 122.77,321.44 C123.32,321.99 117.45,325.00 115.84,325.00 C115.14,325.00 116.33,324.11 118.47,323.02 ZM 126.08 321.42 C126.13,320.25 126.36,320.01 126.68,320.81 C126.97,321.53 126.94,322.40 126.60,322.73 C126.27,323.06 126.04,322.47 126.08,321.42 ZM 159.08 321.75 C158.98,319.65 160.62,319.57 164.00,321.50 C166.90,323.16 166.24,323.42 162.63,322.05 C160.86,321.38 159.99,321.45 159.65,322.30 C159.38,322.96 159.12,322.71 159.08,321.75 ZM 174.14 318.32 C174.06,317.12 174.67,315.47 175.50,314.64 C177.07,313.07 187.20,308.96 189.29,309.05 C189.95,309.08 187.69,310.15 184.26,311.42 C176.97,314.13 175.27,315.35 174.70,318.32 L 174.27 320.50 L 174.14 318.32 ZM 108.00 314.00 C106.07,312.95 104.86,312.06 105.30,312.04 C106.36,311.99 112.00,314.92 112.00,315.53 C112.00,316.18 111.94,316.16 108.00,314.00 ZM 135.25 312.31 C136.21,312.06 137.79,312.06 138.75,312.31 C139.71,312.56 138.93,312.77 137.00,312.77 C135.07,312.77 134.29,312.56 135.25,312.31 ZM 146.75 312.34 C147.44,312.06 148.56,312.06 149.25,312.34 C149.94,312.62 149.38,312.84 148.00,312.84 C146.62,312.84 146.06,312.62 146.75,312.34 ZM 126.75 311.34 C127.44,311.06 128.56,311.06 129.25,311.34 C129.94,311.62 129.38,311.84 128.00,311.84 C126.62,311.84 126.06,311.62 126.75,311.34 ZM 155.75 311.34 C156.44,311.06 157.56,311.06 158.25,311.34 C158.94,311.62 158.38,311.84 157.00,311.84 C155.62,311.84 155.06,311.62 155.75,311.34 ZM 122.81 310.32 C123.53,310.03 124.40,310.06 124.73,310.40 C125.06,310.73 124.47,310.96 123.42,310.92 C122.25,310.87 122.01,310.64 122.81,310.32 ZM 161.81 310.32 C162.53,310.03 163.40,310.06 163.73,310.40 C164.06,310.73 163.47,310.96 162.42,310.92 C161.25,310.87 161.01,310.64 161.81,310.32 ZM 117.81 309.32 C118.53,309.03 119.40,309.06 119.73,309.40 C120.06,309.73 119.47,309.96 118.42,309.92 C117.25,309.87 117.01,309.64 117.81,309.32 ZM 124.74 309.31 C123.77,309.06 123.26,308.38 123.61,307.82 C124.02,307.16 123.39,307.02 121.88,307.44 C119.96,307.97 119.82,307.89 121.16,307.05 C122.96,305.91 126.00,306.62 126.00,308.17 C126.00,308.69 126.34,308.92 126.75,308.68 C127.16,308.45 128.40,308.61 129.50,309.05 C131.29,309.78 131.24,309.85 129.00,309.81 C127.62,309.79 125.71,309.56 124.74,309.31 ZM 158.84 307.93 C162.06,306.50 163.61,306.28 164.84,307.05 C166.18,307.89 166.04,307.97 164.12,307.44 C162.67,307.04 161.98,307.17 162.36,307.77 C162.69,308.31 161.57,309.04 159.86,309.38 C154.63,310.42 154.29,309.95 158.84,307.93 ZM 166.75 309.34 C167.44,309.06 168.56,309.06 169.25,309.34 C169.94,309.62 169.38,309.84 168.00,309.84 C166.62,309.84 166.06,309.62 166.75,309.34 ZM 112.75 308.34 C113.44,308.06 114.56,308.06 115.25,308.34 C115.94,308.62 115.38,308.84 114.00,308.84 C112.62,308.84 112.06,308.62 112.75,308.34 ZM 172.50 308.00 C173.60,307.53 175.40,307.15 176.50,307.17 C178.11,307.19 178.01,307.36 176.00,308.00 C172.58,309.10 169.95,309.10 172.50,308.00 ZM 88.00 307.00 C86.17,305.82 87.75,305.82 90.50,307.00 C91.82,307.57 91.99,307.88 91.00,307.91 C90.18,307.94 88.82,307.53 88.00,307.00 ZM 106.50 307.00 C105.24,306.46 105.05,306.14 106.00,306.14 C106.82,306.14 108.40,306.53 109.50,307.00 C110.76,307.54 110.95,307.86 110.00,307.86 C109.18,307.86 107.60,307.47 106.50,307.00 ZM 166.17 306.12 C165.11,305.45 165.19,305.14 166.56,304.62 C167.51,304.25 168.52,304.19 168.81,304.48 C169.10,304.76 168.70,305.01 167.92,305.02 C166.75,305.03 166.76,305.20 168.00,306.00 C168.82,306.53 169.05,306.97 168.50,306.97 C167.95,306.97 166.90,306.59 166.17,306.12 ZM 182.00 305.50 C183.93,304.76 186.18,304.15 187.00,304.15 C187.82,304.15 186.93,304.76 185.00,305.50 C183.07,306.24 180.82,306.85 180.00,306.85 C179.18,306.85 180.07,306.24 182.00,305.50 ZM 83.00 305.00 C82.18,304.47 81.95,304.03 82.50,304.03 C83.05,304.03 84.18,304.47 85.00,305.00 C85.82,305.53 86.05,305.97 85.50,305.97 C84.95,305.97 83.82,305.53 83.00,305.00 ZM 97.19 304.32 C94.82,303.48 93.05,302.61 93.27,302.40 C93.48,302.18 96.10,302.87 99.08,303.93 C102.06,304.99 103.82,305.85 103.00,305.85 C102.18,305.84 99.56,305.16 97.19,304.32 ZM 113.00 305.00 C112.18,304.47 111.95,304.03 112.50,304.03 C113.05,304.03 114.18,304.47 115.00,305.00 C115.82,305.53 116.05,305.97 115.50,305.97 C114.95,305.97 113.82,305.53 113.00,305.00 ZM 201.00 305.00 C201.82,304.47 202.95,304.03 203.50,304.03 C204.05,304.03 203.82,304.47 203.00,305.00 C202.18,305.53 201.05,305.97 200.50,305.97 C199.95,305.97 200.18,305.53 201.00,305.00 ZM 116.00 304.00 C115.18,303.47 114.95,303.03 115.50,303.03 C116.05,303.03 117.18,303.47 118.00,304.00 C118.82,304.53 119.05,304.97 118.50,304.97 C117.95,304.97 116.82,304.53 116.00,304.00 ZM 174.00 304.00 C174.82,303.47 175.95,303.03 176.50,303.03 C177.05,303.03 176.82,303.47 176.00,304.00 C175.18,304.53 174.05,304.97 173.50,304.97 C172.95,304.97 173.18,304.53 174.00,304.00 ZM 77.00 302.50 C75.62,301.71 74.95,301.07 75.50,301.07 C76.05,301.07 77.62,301.71 79.00,302.50 C80.38,303.29 81.05,303.93 80.50,303.93 C79.95,303.93 78.38,303.29 77.00,302.50 ZM 108.00 303.00 C107.18,302.47 106.95,302.03 107.50,302.03 C108.05,302.03 109.18,302.47 110.00,303.00 C110.82,303.53 111.05,303.97 110.50,303.97 C109.95,303.97 108.82,303.53 108.00,303.00 ZM 210.01 301.27 C218.76,296.88 223.00,295.00 223.00,295.50 C223.00,296.19 209.94,302.62 207.00,303.38 C205.62,303.74 206.98,302.79 210.01,301.27 ZM 107.75 300.43 C105.14,299.07 103.00,297.74 103.00,297.46 C103.00,297.02 112.90,301.69 113.92,302.62 C115.15,303.75 111.90,302.60 107.75,300.43 ZM 172.08 302.62 C173.10,301.69 183.00,297.02 183.00,297.47 C183.00,298.03 173.45,303.00 172.37,303.00 C171.98,303.00 171.85,302.83 172.08,302.62 ZM 179.00 302.00 C179.82,301.47 180.95,301.03 181.50,301.03 C182.05,301.03 181.82,301.47 181.00,302.00 C180.18,302.53 179.05,302.97 178.50,302.97 C177.95,302.97 178.18,302.53 179.00,302.00 ZM 103.00 301.00 C102.10,300.42 101.98,300.02 102.69,300.02 C103.35,300.01 104.16,300.45 104.50,301.00 C105.27,302.24 104.92,302.24 103.00,301.00 ZM 84.00 299.00 C82.07,297.95 80.95,297.08 81.50,297.08 C82.05,297.08 84.07,297.95 86.00,299.00 C87.93,300.05 89.05,300.92 88.50,300.92 C87.95,300.92 85.93,300.05 84.00,299.00 ZM 183.08 300.62 C184.10,299.69 194.00,295.02 194.00,295.47 C194.00,296.03 184.45,301.00 183.37,301.00 C182.98,301.00 182.85,300.83 183.08,300.62 ZM 200.00 299.00 C201.93,297.95 203.95,297.08 204.50,297.08 C205.05,297.08 203.93,297.95 202.00,299.00 C200.07,300.05 198.05,300.92 197.50,300.92 C196.95,300.92 198.07,300.05 200.00,299.00 ZM 91.75 295.43 C88.01,293.40 88.24,292.56 92.00,294.50 C93.65,295.35 95.00,296.26 95.00,296.53 C95.00,297.17 94.89,297.13 91.75,295.43 ZM 98.25 295.01 C96.46,293.92 95.00,292.81 95.00,292.55 C95.00,292.28 96.57,293.00 98.50,294.13 C100.43,295.27 102.00,296.38 102.00,296.60 C102.00,297.24 101.68,297.10 98.25,295.01 ZM 184.00 296.57 C184.00,296.30 184.90,295.59 186.00,295.00 C187.10,294.41 188.00,294.15 188.00,294.43 C188.00,294.70 187.10,295.41 186.00,296.00 C184.90,296.59 184.00,296.85 184.00,296.57 ZM 60.50 294.31 C57.17,292.53 52.40,289.00 53.32,289.00 C53.65,289.00 55.45,290.01 57.33,291.25 C59.21,292.49 61.60,294.04 62.63,294.69 C65.35,296.43 63.99,296.18 60.50,294.31 ZM 208.00 295.54 C208.00,295.27 209.80,294.12 212.00,293.00 C214.20,291.88 216.00,291.18 216.00,291.46 C216.00,291.73 214.20,292.88 212.00,294.00 C209.80,295.12 208.00,295.82 208.00,295.54 ZM 72.75 293.43 C69.01,291.40 69.24,290.56 73.00,292.50 C74.65,293.35 76.00,294.26 76.00,294.53 C76.00,295.17 75.89,295.13 72.75,293.43 ZM 195.00 294.78 C195.27,294.47 199.77,291.39 205.00,287.94 C214.90,281.41 228.59,268.29 233.00,261.12 C234.38,258.88 235.88,257.04 236.34,257.03 C237.45,256.99 232.27,263.97 225.41,271.73 C219.53,278.39 207.84,287.76 199.50,292.51 C196.75,294.07 194.73,295.10 195.00,294.78 ZM 224.00 294.72 C224.27,294.42 228.55,291.49 233.50,288.22 C238.45,284.94 243.62,281.23 245.00,279.97 C251.19,274.30 253.13,272.98 248.26,277.75 C245.31,280.64 239.66,285.19 235.70,287.85 C228.96,292.38 222.87,295.96 224.00,294.72 ZM 85.44 291.44 C83.58,289.95 83.59,289.93 85.75,290.98 C86.99,291.58 88.00,292.28 88.00,292.54 C88.00,293.30 87.48,293.08 85.44,291.44 ZM 217.00 290.61 C217.00,290.36 218.69,289.14 220.75,287.90 C222.81,286.65 226.75,283.87 229.50,281.72 L 234.50 277.80 L 229.72 282.15 C225.35,286.13 217.00,291.68 217.00,290.61 ZM 198.50 286.92 C200.70,285.14 207.00,279.16 212.50,273.65 C221.89,264.23 222.54,263.76 217.52,270.03 C214.69,273.56 201.61,285.46 197.73,288.03 C195.52,289.50 195.76,289.15 198.50,286.92 ZM 49.87 287.25 C48.63,285.66 48.66,285.63 50.25,286.87 C51.21,287.63 52.00,288.41 52.00,288.62 C52.00,289.45 51.18,288.92 49.87,287.25 ZM 62.86 286.94 L 60.50 284.88 L 63.25 286.56 C64.76,287.48 66.00,288.40 66.00,288.62 C66.00,289.40 65.16,288.95 62.86,286.94 ZM 75.96 284.93 L 72.50 281.86 L 76.25 284.55 C79.56,286.92 80.64,288.00 79.71,288.00 C79.55,288.00 77.87,286.62 75.96,284.93 ZM 85.40 285.75 L 83.50 283.50 L 85.75 285.40 C87.86,287.20 88.46,288.00 87.65,288.00 C87.47,288.00 86.45,286.99 85.40,285.75 ZM 45.87 284.25 C44.63,282.66 44.66,282.63 46.25,283.87 C47.92,285.18 48.45,286.00 47.62,286.00 C47.41,286.00 46.63,285.21 45.87,284.25 ZM 57.87 283.25 C56.63,281.66 56.66,281.63 58.25,282.87 C59.92,284.18 60.45,285.00 59.62,285.00 C59.41,285.00 58.63,284.21 57.87,283.25 ZM 79.92 281.25 L 77.50 278.50 L 80.25 280.92 C82.82,283.19 83.46,284.00 82.67,284.00 C82.50,284.00 81.26,282.76 79.92,281.25 ZM 41.87 281.25 C40.66,279.70 40.68,279.64 42.09,280.74 C42.97,281.42 44.05,281.65 44.50,281.24 C44.95,280.83 45.00,281.06 44.60,281.75 C43.67,283.37 43.51,283.34 41.87,281.25 ZM 53.40 279.75 L 51.50 277.50 L 53.75 279.40 C55.86,281.20 56.46,282.00 55.65,282.00 C55.47,282.00 54.45,280.99 53.40,279.75 ZM 67.92 278.25 L 65.50 275.50 L 68.25 277.92 C70.82,280.19 71.46,281.00 70.67,281.00 C70.50,281.00 69.26,279.76 67.92,278.25 ZM 31.48 271.75 L 23.50 263.50 L 31.75 271.48 C36.29,275.86 40.00,279.58 40.00,279.73 C40.00,280.46 38.88,279.41 31.48,271.75 ZM 44.47 271.80 C39.73,266.87 39.43,266.41 43.04,269.55 C47.13,273.11 51.60,278.00 50.77,278.00 C50.58,278.00 47.75,275.21 44.47,271.80 ZM 132.53 277.04 C132.20,276.52 131.28,276.34 130.48,276.65 C129.67,276.96 128.75,276.51 128.43,275.67 C128.10,274.82 127.20,274.37 126.42,274.67 C125.64,274.97 125.00,274.73 125.00,274.14 C125.00,273.55 124.25,273.35 123.34,273.70 C122.12,274.17 121.89,273.98 122.50,273.00 C123.13,271.99 122.86,271.84 121.41,272.39 C120.03,272.92 119.80,272.82 120.59,272.02 C121.38,271.22 123.44,271.66 128.09,273.63 C135.19,276.63 137.28,278.00 134.76,278.00 C133.86,278.00 132.85,277.57 132.53,277.04 ZM 150.00 277.11 C150.00,276.09 151.62,275.62 154.74,275.73 C155.42,275.75 155.73,275.38 155.43,274.89 C155.13,274.40 155.36,274.00 155.94,274.00 C156.52,274.00 157.00,274.67 157.00,275.50 C157.00,276.33 156.14,277.00 155.08,277.00 C154.03,277.00 152.45,277.27 151.58,277.61 C150.71,277.94 150.00,277.72 150.00,277.11 ZM 241.97 270.50 C252.08,259.59 252.82,258.89 249.25,263.50 C247.55,265.70 243.54,269.98 240.35,273.00 C235.44,277.66 235.68,277.27 241.97,270.50 ZM 158.00 274.11 C158.00,273.62 158.56,272.98 159.25,272.70 C159.94,272.41 162.23,271.44 164.34,270.54 C166.86,269.46 167.92,269.32 167.43,270.12 C166.88,271.00 167.20,271.13 168.59,270.57 C172.56,268.98 173.42,268.91 171.00,270.37 C169.62,271.20 167.38,271.64 166.00,271.36 C163.97,270.94 163.78,271.05 165.00,271.98 C166.21,272.91 166.05,273.00 164.12,272.46 C162.34,271.95 161.95,272.11 162.54,273.06 C163.10,273.97 162.85,274.16 161.66,273.70 C160.75,273.35 160.00,273.50 160.00,274.03 C160.00,274.56 159.55,275.00 159.00,275.00 C158.45,275.00 158.00,274.60 158.00,274.11 ZM 68.95 270.25 L 65.50 266.50 L 69.25 269.95 C72.74,273.15 73.46,274.00 72.70,274.00 C72.53,274.00 70.84,272.31 68.95,270.25 ZM 117.86 271.20 C118.82,270.52 118.89,270.08 118.09,269.70 C117.35,269.34 117.34,269.22 118.05,269.35 C119.59,269.63 119.43,271.38 117.82,271.80 C116.78,272.08 116.79,271.95 117.86,271.20 ZM 55.52 265.36 C47.16,255.10 36.97,235.04 38.38,231.62 C38.67,230.92 38.87,231.00 38.92,231.83 C39.25,237.44 49.18,256.36 56.52,265.37 C59.05,268.47 60.88,271.00 60.61,271.00 C60.33,271.00 58.04,268.46 55.52,265.36 ZM 112.44 269.44 C110.61,267.98 110.64,267.96 113.00,269.08 C116.06,270.54 116.63,271.00 115.36,271.00 C114.82,271.00 113.51,270.30 112.44,269.44 ZM 258.00 267.50 C259.87,265.58 261.62,264.00 261.89,264.00 C262.17,264.00 260.87,265.58 259.00,267.50 C257.13,269.42 255.38,271.00 255.11,271.00 C254.83,271.00 256.13,269.42 258.00,267.50 ZM 113.44 267.44 C111.58,265.95 111.59,265.93 113.75,266.98 C114.99,267.58 116.00,268.28 116.00,268.54 C116.00,269.30 115.48,269.08 113.44,267.44 ZM 169.00 268.74 C169.00,268.49 171.81,266.56 175.25,264.45 C178.69,262.34 185.65,256.48 190.73,251.42 C195.81,246.36 199.41,242.98 198.73,243.92 C194.45,249.82 188.64,255.74 182.97,259.95 C176.15,265.03 169.00,269.52 169.00,268.74 ZM 108.00 267.00 C107.10,266.42 106.98,266.02 107.69,266.02 C108.35,266.01 109.16,266.45 109.50,267.00 C110.27,268.24 109.92,268.24 108.00,267.00 ZM 176.00 267.55 C176.00,267.28 177.35,266.35 179.00,265.50 C180.65,264.65 182.00,264.17 182.00,264.45 C182.00,264.72 180.65,265.65 179.00,266.50 C177.35,267.35 176.00,267.83 176.00,267.55 ZM 63.87 264.25 C62.63,262.66 62.66,262.63 64.25,263.87 C65.21,264.63 66.00,265.41 66.00,265.62 C66.00,266.45 65.18,265.92 63.87,264.25 ZM 107.36 263.69 C100.27,258.75 96.32,255.41 93.00,251.56 C90.60,248.77 91.63,249.47 96.32,253.78 C100.07,257.24 104.91,261.18 107.07,262.54 C109.23,263.91 111.00,265.24 111.00,265.51 C111.00,266.20 110.85,266.13 107.36,263.69 ZM 35.38 261.75 C32.42,258.38 30.70,256.00 31.21,256.00 C31.46,256.00 33.11,257.80 34.88,260.00 C38.31,264.27 38.66,265.50 35.38,261.75 ZM 100.44 262.44 C98.58,260.95 98.59,260.93 100.75,261.98 C101.99,262.58 103.00,263.28 103.00,263.54 C103.00,264.30 102.48,264.08 100.44,262.44 ZM 183.50 263.30 C184.05,262.76 187.22,260.27 190.54,257.77 C197.54,252.48 203.90,245.35 209.36,236.65 C211.48,233.27 212.93,231.36 212.58,232.41 C210.06,239.96 194.43,257.47 185.81,262.39 C183.99,263.43 182.95,263.84 183.50,263.30 ZM 22.07 261.59 C21.17,260.50 21.20,260.01 22.20,259.43 C22.92,259.02 23.17,259.05 22.76,259.50 C22.35,259.95 22.52,260.92 23.13,261.66 C23.74,262.40 24.02,263.00 23.74,263.00 C23.47,263.00 22.72,262.37 22.07,261.59 ZM 223.09 262.50 C223.12,261.95 224.02,260.15 225.08,258.50 C226.76,255.89 229.78,249.88 233.86,241.00 L 235.01 238.50 L 234.41 241.00 C233.11,246.40 222.92,265.77 223.09,262.50 ZM 267.17 255.47 C269.42,251.87 271.47,249.14 271.72,249.39 C272.19,249.86 264.27,262.00 263.50,262.00 C263.26,262.00 264.92,259.06 267.17,255.47 ZM 95.87 259.25 C94.63,257.66 94.66,257.63 96.25,258.87 C97.21,259.63 98.00,260.41 98.00,260.62 C98.00,261.45 97.18,260.92 95.87,259.25 ZM 18.87 257.25 C17.63,255.66 17.66,255.63 19.25,256.87 C20.21,257.63 21.00,258.41 21.00,258.62 C21.00,259.45 20.18,258.92 18.87,257.25 ZM 252.00 258.62 C252.00,258.41 252.79,257.63 253.75,256.87 C255.34,255.63 255.37,255.66 254.13,257.25 C252.82,258.92 252.00,259.45 252.00,258.62 ZM 89.92 254.25 L 87.50 251.50 L 90.25 253.92 C92.82,256.19 93.46,257.00 92.67,257.00 C92.50,257.00 91.26,255.76 89.92,254.25 ZM 56.95 253.91 C56.34,252.77 56.03,251.64 56.26,251.41 C56.49,251.18 57.19,252.12 57.82,253.50 C59.19,256.52 58.52,256.85 56.95,253.91 ZM 239.00 252.00 C240.12,249.80 241.27,248.00 241.54,248.00 C241.82,248.00 241.12,249.80 240.00,252.00 C238.88,254.20 237.73,256.00 237.46,256.00 C237.18,256.00 237.88,254.20 239.00,252.00 ZM 29.24 253.75 C27.79,251.94 22.81,241.86 23.18,241.49 C23.36,241.31 25.17,244.28 27.20,248.09 C30.77,254.75 31.36,256.39 29.24,253.75 ZM 259.76 246.34 C262.37,241.30 264.64,237.31 264.81,237.48 C265.25,237.92 258.50,251.07 256.59,253.50 C255.73,254.60 257.15,251.38 259.76,246.34 ZM 15.62 252.46 C14.66,249.95 14.94,249.30 16.12,251.32 C16.71,252.33 16.97,253.36 16.72,253.62 C16.46,253.88 15.97,253.36 15.62,252.46 ZM 82.40 246.75 L 80.50 244.50 L 82.75 246.40 C84.86,248.20 85.46,249.00 84.65,249.00 C84.47,249.00 83.45,247.99 82.40,246.75 ZM 11.00 244.00 C9.88,241.80 9.18,240.00 9.46,240.00 C9.73,240.00 10.88,241.80 12.00,244.00 C13.12,246.20 13.82,248.00 13.54,248.00 C13.27,248.00 12.12,246.20 11.00,244.00 ZM 275.32 241.07 C277.05,237.26 278.64,234.31 278.85,234.52 C279.31,234.98 273.31,248.00 272.63,248.00 C272.37,248.00 273.58,244.88 275.32,241.07 ZM 242.07 246.50 C242.07,245.95 242.71,244.38 243.50,243.00 C244.29,241.62 244.93,240.95 244.93,241.50 C244.93,242.05 244.29,243.62 243.50,245.00 C242.71,246.38 242.07,247.05 242.07,246.50 ZM 138.27 245.31 C139.24,245.05 140.59,245.07 141.27,245.34 C141.95,245.62 141.15,245.83 139.50,245.81 C137.85,245.78 137.30,245.56 138.27,245.31 ZM 149.25 245.31 C150.21,245.06 151.79,245.06 152.75,245.31 C153.71,245.56 152.93,245.77 151.00,245.77 C149.07,245.77 148.29,245.56 149.25,245.31 ZM 85.51 242.38 C84.57,240.93 84.29,240.06 84.89,240.43 C86.05,241.15 88.37,245.00 87.65,245.00 C87.42,245.00 86.46,243.82 85.51,242.38 ZM 132.81 244.32 C133.53,244.03 134.40,244.06 134.73,244.40 C135.06,244.73 134.47,244.96 133.42,244.92 C132.25,244.87 132.01,244.64 132.81,244.32 ZM 155.81 244.32 C156.53,244.03 157.40,244.06 157.73,244.40 C158.06,244.73 157.47,244.96 156.42,244.92 C155.25,244.87 155.01,244.64 155.81,244.32 ZM 164.50 241.15 C167.80,239.58 171.96,236.93 173.75,235.25 C175.54,233.57 177.00,232.57 177.00,233.01 C177.00,235.07 163.01,244.00 159.79,244.00 C159.08,244.00 161.20,242.72 164.50,241.15 ZM 51.12 239.90 C50.50,238.14 50.03,236.21 50.07,235.60 C50.11,235.00 50.79,236.26 51.57,238.41 C52.36,240.56 52.83,242.50 52.62,242.71 C52.41,242.93 51.73,241.66 51.12,239.90 ZM 124.00 241.50 C122.62,240.71 121.95,240.07 122.50,240.07 C123.05,240.07 124.62,240.71 126.00,241.50 C127.38,242.29 128.05,242.93 127.50,242.93 C126.95,242.93 125.38,242.29 124.00,241.50 ZM 197.00 240.00 C197.00,239.45 197.48,239.00 198.06,239.00 C198.64,239.00 198.84,239.45 198.50,240.00 C198.16,240.55 197.68,241.00 197.44,241.00 C197.20,241.00 197.00,240.55 197.00,240.00 ZM 203.25 234.42 C205.04,230.52 206.63,227.64 206.78,228.01 C207.18,228.97 203.51,237.12 201.60,239.50 C200.72,240.60 201.46,238.31 203.25,234.42 ZM 21.35 238.46 C21.02,237.61 20.98,236.69 21.25,236.42 C21.52,236.14 21.99,236.84 22.28,237.96 C22.90,240.34 22.21,240.71 21.35,238.46 ZM 74.97 236.45 C73.76,234.49 72.94,232.72 73.15,232.51 C73.36,232.31 74.55,233.90 75.80,236.07 C78.62,240.97 77.95,241.27 74.97,236.45 ZM 114.27 234.25 C108.49,228.50 104.65,222.15 103.55,216.50 C103.03,213.80 103.11,213.85 104.36,217.05 C107.56,225.21 110.52,229.79 115.79,234.75 C118.86,237.64 121.07,240.00 120.71,240.00 C120.35,240.00 117.45,237.41 114.27,234.25 ZM 235.14 237.00 C235.14,236.18 235.53,234.60 236.00,233.50 C236.54,232.24 236.86,232.05 236.86,233.00 C236.86,233.82 236.47,235.40 236.00,236.50 C235.46,237.76 235.14,237.95 235.14,237.00 ZM 81.46 235.93 C81.10,235.35 81.01,234.65 81.28,234.39 C81.54,234.13 82.02,234.61 82.35,235.46 C83.02,237.22 82.44,237.53 81.46,235.93 ZM 6.62 234.46 C5.66,231.95 5.94,231.30 7.12,233.32 C7.71,234.33 7.97,235.36 7.72,235.62 C7.46,235.88 6.97,235.36 6.62,234.46 ZM 19.62 233.46 C18.66,230.95 18.94,230.30 20.12,232.32 C20.71,233.33 20.97,234.36 20.72,234.62 C20.46,234.88 19.97,234.36 19.62,233.46 ZM 247.12 234.50 C247.08,233.95 247.66,231.25 248.43,228.50 C249.20,225.75 249.83,224.40 249.83,225.50 C249.85,227.63 247.27,236.19 247.12,234.50 ZM 49.08 232.42 C49.13,231.25 49.36,231.01 49.68,231.81 C49.97,232.53 49.94,233.40 49.60,233.73 C49.27,234.06 49.04,233.47 49.08,232.42 ZM 178.04 231.44 C178.07,230.44 182.99,224.11 183.00,225.06 C183.00,225.36 181.88,227.14 180.50,229.00 C179.12,230.86 178.02,231.96 178.04,231.44 ZM 5.08 229.42 C5.13,228.25 5.36,228.01 5.68,228.81 C5.97,229.53 5.94,230.40 5.60,230.73 C5.27,231.06 5.04,230.47 5.08,229.42 ZM 71.16 228.46 C70.52,227.05 70.02,225.36 70.04,224.70 C70.06,224.04 70.74,225.03 71.55,226.90 C73.26,230.84 72.90,232.27 71.16,228.46 ZM 133.14 228.38 C130.26,226.95 128.11,225.56 128.36,225.30 C128.62,225.05 129.98,225.60 131.39,226.52 C132.80,227.44 135.87,228.80 138.22,229.53 C140.58,230.27 141.58,230.90 140.45,230.93 C139.32,230.97 136.03,229.82 133.14,228.38 ZM 148.75 230.34 C149.44,230.06 150.56,230.06 151.25,230.34 C151.94,230.62 151.38,230.84 150.00,230.84 C148.62,230.84 148.06,230.62 148.75,230.34 ZM 237.16 229.00 C237.16,227.62 237.38,227.06 237.66,227.75 C237.94,228.44 237.94,229.56 237.66,230.25 C237.38,230.94 237.16,230.38 237.16,229.00 ZM 280.14 230.00 C280.14,229.18 280.53,227.60 281.00,226.50 C281.54,225.24 281.86,225.05 281.86,226.00 C281.86,226.82 281.47,228.40 281.00,229.50 C280.46,230.76 280.14,230.95 280.14,230.00 ZM 18.08 228.42 C18.13,227.25 18.36,227.01 18.68,227.81 C18.97,228.53 18.94,229.40 18.60,229.73 C18.27,230.06 18.04,229.47 18.08,228.42 ZM 37.08 228.42 C37.13,227.25 37.36,227.01 37.68,227.81 C37.97,228.53 37.94,229.40 37.60,229.73 C37.27,230.06 37.04,229.47 37.08,228.42 ZM 48.16 228.00 C48.16,226.62 48.38,226.06 48.66,226.75 C48.94,227.44 48.94,228.56 48.66,229.25 C48.38,229.94 48.16,229.38 48.16,228.00 ZM 153.08 229.68 C154.67,228.46 161.00,225.16 161.00,225.55 C161.00,226.22 154.71,229.99 153.58,230.00 C153.08,230.00 152.85,229.86 153.08,229.68 ZM 213.00 229.57 C213.00,229.33 213.49,227.86 214.09,226.32 C214.69,224.77 215.78,220.80 216.51,217.50 C217.24,214.20 217.88,212.69 217.92,214.14 C218.00,216.84 214.30,230.00 213.46,230.00 C213.21,230.00 213.00,229.80 213.00,229.57 ZM 267.08 228.42 C267.13,227.25 267.36,227.01 267.68,227.81 C267.97,228.53 267.94,229.40 267.60,229.73 C267.27,230.06 267.04,229.47 267.08,228.42 ZM 3.57 224.43 C3.20,222.96 3.10,221.57 3.33,221.34 C3.57,221.10 4.06,222.11 4.43,223.57 C4.80,225.04 4.90,226.43 4.67,226.66 C4.43,226.90 3.94,225.89 3.57,224.43 ZM 36.16 224.00 C36.16,222.62 36.38,222.06 36.66,222.75 C36.94,223.44 36.94,224.56 36.66,225.25 C36.38,225.94 36.16,225.38 36.16,224.00 ZM 238.25 222.50 C238.26,220.30 238.47,219.52 238.71,220.76 C238.95,222.01 238.94,223.81 238.69,224.76 C238.44,225.72 238.24,224.70 238.25,222.50 ZM 268.08 224.42 C268.13,223.25 268.36,223.01 268.68,223.81 C268.97,224.53 268.94,225.40 268.60,225.73 C268.27,226.06 268.04,225.47 268.08,224.42 ZM 76.64 222.79 C76.30,221.53 76.07,219.60 76.11,218.50 C76.16,217.40 76.61,218.26 77.12,220.40 C78.09,224.56 77.67,226.65 76.64,222.79 ZM 47.23 221.00 C47.23,219.07 47.44,218.29 47.69,219.25 C47.94,220.21 47.94,221.79 47.69,222.75 C47.44,223.71 47.23,222.93 47.23,221.00 ZM 164.40 220.72 C165.78,218.92 167.35,216.33 167.89,214.97 C168.47,213.50 168.90,213.15 168.94,214.10 C169.00,215.66 163.53,224.00 162.44,224.00 C162.14,224.00 163.02,222.52 164.40,220.72 ZM 183.56 222.71 C183.94,221.72 184.50,221.17 184.81,221.47 C185.11,221.78 184.81,222.59 184.12,223.27 C183.14,224.25 183.02,224.13 183.56,222.71 ZM 282.16 222.00 C282.16,220.62 282.38,220.06 282.66,220.75 C282.94,221.44 282.94,222.56 282.66,223.25 C282.38,223.94 282.16,223.38 282.16,222.00 ZM 68.50 220.00 C68.12,218.27 68.02,216.65 68.27,216.39 C68.53,216.14 69.02,217.37 69.38,219.12 C70.21,223.29 69.40,224.10 68.50,220.00 ZM 208.16 221.00 C208.16,219.62 208.38,219.06 208.66,219.75 C208.94,220.44 208.94,221.56 208.66,222.25 C208.38,222.94 208.16,222.38 208.16,221.00 ZM 16.16 220.00 C16.16,218.62 16.38,218.06 16.66,218.75 C16.94,219.44 16.94,220.56 16.66,221.25 C16.38,221.94 16.16,221.38 16.16,220.00 ZM 122.99 218.75 C121.90,216.96 121.02,214.82 121.04,214.00 C121.06,213.18 121.75,214.04 122.57,215.93 C123.39,217.82 124.55,219.96 125.15,220.68 C125.75,221.41 125.96,222.00 125.61,222.00 C125.26,222.00 124.08,220.54 122.99,218.75 ZM 250.23 219.00 C250.23,217.07 250.44,216.29 250.69,217.25 C250.94,218.21 250.94,219.79 250.69,220.75 C250.44,221.71 250.23,220.93 250.23,219.00 ZM 269.16 220.00 C269.16,218.62 269.38,218.06 269.66,218.75 C269.94,219.44 269.94,220.56 269.66,221.25 C269.38,221.94 269.16,221.38 269.16,220.00 ZM 35.16 218.00 C35.16,216.62 35.38,216.06 35.66,216.75 C35.94,217.44 35.94,218.56 35.66,219.25 C35.38,219.94 35.16,219.38 35.16,218.00 ZM 2.16 217.00 C2.16,215.62 2.38,215.06 2.66,215.75 C2.94,216.44 2.94,217.56 2.66,218.25 C2.38,218.94 2.16,218.38 2.16,217.00 ZM 283.08 217.42 C283.13,216.25 283.36,216.01 283.68,216.81 C283.97,217.53 283.94,218.40 283.60,218.73 C283.27,219.06 283.04,218.47 283.08,217.42 ZM 209.25 214.50 C209.26,212.30 209.47,211.52 209.71,212.76 C209.95,214.01 209.94,215.81 209.69,216.76 C209.44,217.72 209.24,216.70 209.25,214.50 ZM 186.08 215.42 C186.13,214.25 186.36,214.01 186.68,214.81 C186.97,215.53 186.94,216.40 186.60,216.73 C186.27,217.06 186.04,216.47 186.08,215.42 ZM 15.16 214.00 C15.16,212.62 15.38,212.06 15.66,212.75 C15.94,213.44 15.94,214.56 15.66,215.25 C15.38,215.94 15.16,215.38 15.16,214.00 ZM 75.35 208.00 C75.35,203.32 75.52,201.41 75.73,203.75 C75.94,206.09 75.94,209.91 75.73,212.25 C75.52,214.59 75.35,212.68 75.35,208.00 ZM 270.19 213.50 C270.22,211.85 270.44,211.30 270.69,212.27 C270.95,213.24 270.93,214.59 270.66,215.27 C270.38,215.95 270.17,215.15 270.19,213.50 ZM 67.23 212.00 C67.23,210.07 67.44,209.29 67.69,210.25 C67.94,211.21 67.94,212.79 67.69,213.75 C67.44,214.71 67.23,213.93 67.23,212.00 ZM 1.23 211.00 C1.23,209.07 1.44,208.29 1.69,209.25 C1.94,210.21 1.94,211.79 1.69,212.75 C1.44,213.71 1.23,212.93 1.23,211.00 ZM 284.23 211.00 C284.23,209.07 284.44,208.29 284.69,209.25 C284.94,210.21 284.94,211.79 284.69,212.75 C284.44,213.71 284.23,212.93 284.23,211.00 ZM 102.23 210.00 C102.23,208.07 102.44,207.29 102.69,208.25 C102.94,209.21 102.94,210.79 102.69,211.75 C102.44,212.71 102.23,211.93 102.23,210.00 ZM 187.34 206.00 C187.34,201.88 187.51,200.19 187.73,202.25 C187.94,204.31 187.94,207.69 187.73,209.75 C187.51,211.81 187.34,210.12 187.34,206.00 ZM 251.31 207.50 C251.32,204.20 251.50,202.97 251.72,204.77 C251.95,206.57 251.94,209.27 251.71,210.77 C251.49,212.27 251.30,210.80 251.31,207.50 ZM 120.19 209.50 C120.22,207.85 120.44,207.30 120.69,208.27 C120.95,209.24 120.93,210.59 120.66,211.27 C120.38,211.95 120.17,211.15 120.19,209.50 ZM 169.08 210.42 C169.13,209.25 169.36,209.01 169.68,209.81 C169.97,210.53 169.94,211.40 169.60,211.73 C169.27,212.06 169.04,211.47 169.08,210.42 ZM 218.32 205.00 C218.32,201.43 218.50,199.96 218.72,201.75 C218.95,203.54 218.95,206.46 218.72,208.25 C218.50,210.04 218.32,208.57 218.32,205.00 ZM 271.25 203.50 C271.26,201.30 271.47,200.52 271.71,201.76 C271.95,203.01 271.94,204.81 271.69,205.76 C271.44,206.72 271.24,205.70 271.25,203.50 ZM 14.30 201.00 C14.30,197.98 14.49,196.74 14.72,198.25 C14.95,199.76 14.95,202.24 14.72,203.75 C14.49,205.26 14.30,204.02 14.30,201.00 ZM 209.27 202.00 C209.27,199.52 209.47,198.51 209.71,199.75 C209.94,200.99 209.94,203.01 209.71,204.25 C209.47,205.49 209.27,204.48 209.27,202.00 ZM 47.23 202.00 C47.23,200.07 47.44,199.29 47.69,200.25 C47.94,201.21 47.94,202.79 47.69,203.75 C47.44,204.71 47.23,203.93 47.23,202.00 ZM 102.23 201.00 C102.23,199.07 102.44,198.29 102.69,199.25 C102.94,200.21 102.94,201.79 102.69,202.75 C102.44,203.71 102.23,202.93 102.23,201.00 ZM 238.23 201.00 C238.23,199.07 238.44,198.29 238.69,199.25 C238.94,200.21 238.94,201.79 238.69,202.75 C238.44,203.71 238.23,202.93 238.23,201.00 ZM 120.16 201.00 C120.16,199.62 120.38,199.06 120.66,199.75 C120.94,200.44 120.94,201.56 120.66,202.25 C120.38,202.94 120.16,202.38 120.16,201.00 ZM 169.11 201.00 C168.91,197.80 165.77,191.25 162.80,187.87 C160.47,185.20 155.57,182.32 151.01,180.93 C149.33,180.42 149.09,180.14 150.28,180.09 C153.44,179.93 161.57,184.75 164.38,188.43 C167.93,193.08 170.22,198.66 169.69,201.35 C169.32,203.26 169.25,203.22 169.11,201.00 ZM 35.23 197.00 C35.23,195.07 35.44,194.29 35.69,195.25 C35.94,196.21 35.94,197.79 35.69,198.75 C35.44,199.71 35.23,198.93 35.23,197.00 ZM 67.19 197.50 C67.22,195.85 67.44,195.30 67.69,196.27 C67.95,197.24 67.93,198.59 67.66,199.27 C67.38,199.95 67.17,199.15 67.19,197.50 ZM 250.23 196.00 C250.23,194.07 250.44,193.29 250.69,194.25 C250.94,195.21 250.94,196.79 250.69,197.75 C250.44,198.71 250.23,197.93 250.23,196.00 ZM 76.17 196.50 C76.15,195.40 76.53,193.60 77.00,192.50 C78.10,189.95 78.10,192.58 77.00,196.00 C76.36,198.01 76.19,198.11 76.17,196.50 ZM 121.01 197.21 C120.98,193.16 129.92,182.00 133.18,182.00 C133.80,182.00 132.40,183.38 130.08,185.06 C127.33,187.05 125.01,189.94 123.44,193.31 C122.11,196.16 121.02,197.92 121.01,197.21 ZM 217.14 196.00 C217.05,194.62 216.74,192.38 216.46,191.00 L 215.94 188.50 L 217.02 190.96 C217.61,192.32 217.91,194.57 217.70,195.96 L 217.30 198.50 L 217.14 196.00 ZM 48.16 195.00 C48.16,193.62 48.38,193.06 48.66,193.75 C48.94,194.44 48.94,195.56 48.66,196.25 C48.38,196.94 48.16,196.38 48.16,195.00 ZM 103.08 195.42 C103.13,194.25 103.36,194.01 103.68,194.81 C103.97,195.53 103.94,196.40 103.60,196.73 C103.27,197.06 103.04,196.47 103.08,195.42 ZM 186.08 195.42 C186.13,194.25 186.36,194.01 186.68,194.81 C186.97,195.53 186.94,196.40 186.60,196.73 C186.27,197.06 186.04,196.47 186.08,195.42 ZM 208.16 195.00 C208.16,193.62 208.38,193.06 208.66,193.75 C208.94,194.44 208.94,195.56 208.66,196.25 C208.38,196.94 208.16,196.38 208.16,195.00 ZM 237.12 195.50 C237.04,194.40 236.74,192.38 236.46,191.00 L 235.94 188.50 L 237.01 190.95 C237.60,192.30 237.90,194.33 237.68,195.45 C237.28,197.45 237.27,197.45 237.12,195.50 ZM 68.16 192.00 C68.16,190.62 68.38,190.06 68.66,190.75 C68.94,191.44 68.94,192.56 68.66,193.25 C68.38,193.94 68.16,193.38 68.16,192.00 ZM 270.23 191.00 C270.23,189.07 270.44,188.29 270.69,189.25 C270.94,190.21 270.94,191.79 270.69,192.75 C270.44,193.71 270.23,192.93 270.23,191.00 ZM 184.11 189.89 C183.50,188.12 183.17,186.50 183.38,186.29 C183.59,186.07 184.27,187.34 184.89,189.11 C185.50,190.88 185.83,192.50 185.62,192.71 C185.41,192.93 184.73,191.66 184.11,189.89 ZM 15.19 189.50 C15.22,187.85 15.44,187.30 15.69,188.27 C15.95,189.24 15.93,190.59 15.66,191.27 C15.38,191.95 15.17,191.15 15.19,189.50 ZM 36.08 190.42 C36.13,189.25 36.36,189.01 36.68,189.81 C36.97,190.53 36.94,191.40 36.60,191.73 C36.27,192.06 36.04,191.47 36.08,190.42 ZM 49.08 190.42 C49.13,189.25 49.36,189.01 49.68,189.81 C49.97,190.53 49.94,191.40 49.60,191.73 C49.27,192.06 49.04,191.47 49.08,190.42 ZM 249.08 190.42 C249.13,189.25 249.36,189.01 249.68,189.81 C249.97,190.53 249.94,191.40 249.60,191.73 C249.27,192.06 249.04,191.47 249.08,190.42 ZM 1.23 188.00 C1.23,186.07 1.44,185.29 1.69,186.25 C1.94,187.21 1.94,188.79 1.69,189.75 C1.44,190.71 1.23,189.93 1.23,188.00 ZM 284.23 188.00 C284.23,186.07 284.44,185.29 284.69,186.25 C284.94,187.21 284.94,188.79 284.69,189.75 C284.44,190.71 284.23,189.93 284.23,188.00 ZM 78.12 189.00 C78.10,188.18 78.71,186.15 79.46,184.50 C81.23,180.64 81.26,182.43 79.50,187.00 C78.76,188.93 78.14,189.82 78.12,189.00 ZM 105.00 189.36 C105.00,188.82 105.70,187.51 106.56,186.44 C108.02,184.61 108.04,184.64 106.92,187.00 C105.46,190.06 105.00,190.63 105.00,189.36 ZM 69.08 187.42 C69.13,186.25 69.36,186.01 69.68,186.81 C69.97,187.53 69.94,188.40 69.60,188.73 C69.27,189.06 69.04,188.47 69.08,187.42 ZM 206.08 188.33 C206.04,187.69 205.74,186.34 205.42,185.33 C204.88,183.59 204.91,183.59 206.00,185.29 C206.63,186.27 206.92,187.62 206.65,188.29 C206.29,189.16 206.14,189.17 206.08,188.33 ZM 50.08 186.42 C50.13,185.25 50.36,185.01 50.68,185.81 C50.97,186.53 50.94,187.40 50.60,187.73 C50.27,188.06 50.04,187.47 50.08,186.42 ZM 215.08 186.42 C215.13,185.25 215.36,185.01 215.68,185.81 C215.97,186.53 215.94,187.40 215.60,187.73 C215.27,188.06 215.04,187.47 215.08,186.42 ZM 235.08 187.33 C235.04,186.69 234.74,185.34 234.42,184.33 C233.88,182.59 233.91,182.59 235.00,184.29 C235.63,185.27 235.92,186.62 235.65,187.29 C235.29,188.16 235.14,188.17 235.08,187.33 ZM 37.08 185.42 C37.13,184.25 37.36,184.01 37.68,184.81 C37.97,185.53 37.94,186.40 37.60,186.73 C37.27,187.06 37.04,186.47 37.08,185.42 ZM 248.08 185.42 C248.13,184.25 248.36,184.01 248.68,184.81 C248.97,185.53 248.94,186.40 248.60,186.73 C248.27,187.06 248.04,186.47 248.08,185.42 ZM 269.16 184.00 C269.16,182.62 269.38,182.06 269.66,182.75 C269.94,183.44 269.94,184.56 269.66,185.25 C269.38,185.94 269.16,185.38 269.16,184.00 ZM 16.08 183.42 C16.13,182.25 16.36,182.01 16.68,182.81 C16.97,183.53 16.94,184.40 16.60,184.73 C16.27,185.06 16.04,184.47 16.08,183.42 ZM 70.58 183.00 C72.12,177.34 81.47,161.06 84.14,159.41 C84.71,159.06 83.48,161.18 81.42,164.12 C79.35,167.06 75.92,173.07 73.78,177.48 C71.65,181.89 70.21,184.38 70.58,183.00 ZM 110.00 181.00 C111.17,179.35 112.36,178.00 112.64,178.00 C112.91,178.00 112.17,179.35 111.00,181.00 C109.83,182.65 108.64,184.00 108.36,184.00 C108.09,184.00 108.83,182.65 110.00,181.00 ZM 179.87 182.25 C178.63,180.66 178.66,180.63 180.25,181.87 C181.21,182.63 182.00,183.41 182.00,183.62 C182.00,184.45 181.18,183.92 179.87,182.25 ZM 211.66 178.00 C210.16,174.73 206.96,169.12 204.55,165.52 C202.14,161.93 200.62,159.27 201.18,159.61 C203.92,161.31 215.86,182.47 214.72,183.61 C214.54,183.79 213.16,181.27 211.66,178.00 ZM 38.14 182.00 C38.14,181.18 38.53,179.60 39.00,178.50 C39.54,177.24 39.86,177.05 39.86,178.00 C39.86,178.82 39.47,180.40 39.00,181.50 C38.46,182.76 38.14,182.95 38.14,182.00 ZM 200.84 176.01 C198.93,172.15 197.64,169.00 197.97,169.00 C198.74,169.00 205.23,182.11 204.71,182.62 C204.50,182.84 202.76,179.86 200.84,176.01 ZM 283.16 181.00 C283.16,179.62 283.38,179.06 283.66,179.75 C283.94,180.44 283.94,181.56 283.66,182.25 C283.38,182.94 283.16,182.38 283.16,181.00 ZM 2.08 180.42 C2.13,179.25 2.36,179.01 2.68,179.81 C2.97,180.53 2.94,181.40 2.60,181.73 C2.27,182.06 2.04,181.47 2.08,180.42 ZM 17.16 179.00 C17.16,177.62 17.38,177.06 17.66,177.75 C17.94,178.44 17.94,179.56 17.66,180.25 C17.38,180.94 17.16,180.38 17.16,179.00 ZM 52.06 180.69 C51.97,179.46 56.21,169.88 56.65,170.31 C56.85,170.52 55.92,173.12 54.57,176.10 C53.22,179.07 52.09,181.13 52.06,180.69 ZM 138.75 180.34 C139.44,180.06 140.56,180.06 141.25,180.34 C141.94,180.62 141.38,180.84 140.00,180.84 C138.62,180.84 138.06,180.62 138.75,180.34 ZM 267.17 176.33 C266.49,173.80 266.11,171.55 266.33,171.34 C266.55,171.12 267.30,172.99 268.00,175.50 C268.70,178.01 269.08,180.25 268.84,180.50 C268.60,180.74 267.84,178.86 267.17,176.33 ZM 175.44 176.75 L 172.50 173.50 L 175.75 176.44 C178.78,179.17 179.46,180.00 178.69,180.00 C178.51,180.00 177.05,178.54 175.44,176.75 ZM 246.08 179.33 C246.04,178.69 245.74,177.34 245.42,176.33 C244.88,174.59 244.91,174.59 246.00,176.29 C246.63,177.27 246.92,178.62 246.65,179.29 C246.29,180.16 246.14,180.17 246.08,179.33 ZM 82.00 178.06 C82.00,177.54 82.44,176.84 82.99,176.51 C83.56,176.16 83.72,176.56 83.38,177.45 C82.72,179.18 82.00,179.50 82.00,178.06 ZM 3.16 176.00 C3.16,174.62 3.38,174.06 3.66,174.75 C3.94,175.44 3.94,176.56 3.66,177.25 C3.38,177.94 3.16,177.38 3.16,176.00 ZM 281.28 173.40 C280.67,170.71 280.32,168.34 280.52,168.15 C281.07,167.59 283.16,176.03 282.76,177.22 C282.56,177.81 281.90,176.09 281.28,173.40 ZM 115.50 175.00 C116.50,173.90 117.53,173.00 117.81,173.00 C118.08,173.00 117.50,173.90 116.50,175.00 C115.50,176.10 114.47,177.00 114.19,177.00 C113.92,177.00 114.50,176.10 115.50,175.00 ZM 229.68 172.45 C227.33,167.53 227.66,166.69 230.12,171.34 C231.23,173.46 231.97,175.37 231.75,175.58 C231.54,175.80 230.60,174.39 229.68,172.45 ZM 85.00 173.00 C85.59,171.90 86.30,171.00 86.57,171.00 C86.85,171.00 86.59,171.90 86.00,173.00 C85.41,174.10 84.70,175.00 84.43,175.00 C84.15,175.00 84.41,174.10 85.00,173.00 ZM 170.10 172.70 C168.84,170.60 168.86,170.58 170.58,172.23 C171.57,173.18 172.17,174.17 171.90,174.43 C171.64,174.69 170.83,173.92 170.10,172.70 ZM 41.03 173.50 C41.03,172.95 41.47,171.82 42.00,171.00 C42.53,170.18 42.97,169.95 42.97,170.50 C42.97,171.05 42.53,172.18 42.00,173.00 C41.47,173.82 41.03,174.05 41.03,173.50 ZM 243.62 172.46 C242.66,169.95 242.94,169.30 244.12,171.32 C244.71,172.33 244.97,173.36 244.72,173.62 C244.46,173.88 243.97,173.36 243.62,172.46 ZM 4.14 172.00 C4.14,171.18 4.53,169.60 5.00,168.50 C5.54,167.24 5.86,167.05 5.86,168.00 C5.86,168.82 5.47,170.40 5.00,171.50 C4.46,172.76 4.14,172.95 4.14,172.00 ZM 165.00 169.50 C163.62,168.71 162.98,168.05 163.56,168.04 C164.14,168.02 165.49,168.66 166.56,169.47 C169.03,171.34 168.24,171.35 165.00,169.50 ZM 57.56 167.71 C57.94,166.72 58.50,166.17 58.81,166.47 C59.11,166.78 58.81,167.59 58.12,168.27 C57.14,169.25 57.02,169.13 57.56,167.71 ZM 238.88 162.75 C237.14,159.31 233.25,152.95 230.22,148.61 C227.20,144.26 225.16,140.98 225.68,141.30 C228.46,143.02 244.26,169.00 242.53,169.00 C242.25,169.00 240.61,166.19 238.88,162.75 ZM 194.00 165.00 C192.83,163.35 192.09,162.00 192.36,162.00 C192.64,162.00 193.83,163.35 195.00,165.00 C196.17,166.65 196.91,168.00 196.64,168.00 C196.36,168.00 195.17,166.65 194.00,165.00 ZM 21.03 166.50 C21.03,165.95 21.47,164.82 22.00,164.00 C22.53,163.18 22.97,162.95 22.97,163.50 C22.97,164.05 22.53,165.18 22.00,166.00 C21.47,166.82 21.03,167.05 21.03,166.50 ZM 156.81 166.32 C157.53,166.03 158.40,166.06 158.73,166.40 C159.06,166.73 158.47,166.96 157.42,166.92 C156.25,166.87 156.01,166.64 156.81,166.32 ZM 225.39 163.75 C224.47,161.96 222.40,158.48 220.79,156.00 C218.29,152.16 218.23,151.94 220.39,154.46 C223.10,157.64 228.48,167.00 227.59,167.00 C227.29,167.00 226.30,165.54 225.39,163.75 ZM 263.62 165.46 C262.66,162.95 262.94,162.30 264.12,164.32 C264.71,165.33 264.97,166.36 264.72,166.62 C264.46,166.88 263.97,166.36 263.62,165.46 ZM 277.09 160.76 C271.38,145.86 262.99,133.74 246.25,116.17 C242.81,112.57 240.02,109.37 240.05,109.06 C240.16,107.70 259.15,128.67 264.18,135.70 C272.17,146.90 280.68,163.46 279.80,166.10 C279.63,166.60 278.41,164.20 277.09,160.76 ZM 135.81 165.32 C136.53,165.03 137.40,165.06 137.73,165.40 C138.06,165.73 137.47,165.96 136.42,165.92 C135.25,165.87 135.01,165.64 135.81,165.32 ZM 152.81 165.32 C153.53,165.03 154.40,165.06 154.73,165.40 C155.06,165.73 154.47,165.96 153.42,165.92 C152.25,165.87 152.01,165.64 152.81,165.32 ZM 142.76 164.29 C144.01,164.05 145.81,164.06 146.76,164.31 C147.72,164.56 146.70,164.76 144.50,164.75 C142.30,164.74 141.52,164.53 142.76,164.29 ZM 92.50 162.00 C93.50,160.90 94.53,160.00 94.81,160.00 C95.08,160.00 94.50,160.90 93.50,162.00 C92.50,163.10 91.47,164.00 91.19,164.00 C90.92,164.00 91.50,163.10 92.50,162.00 ZM 23.00 161.36 C23.00,160.82 23.70,159.51 24.56,158.44 C26.02,156.61 26.04,156.64 24.92,159.00 C23.46,162.06 23.00,162.63 23.00,161.36 ZM 61.01 161.77 C61.00,161.37 61.90,159.57 63.00,157.77 C64.09,155.97 64.99,154.95 64.99,155.50 C64.99,156.05 64.09,157.85 63.00,159.50 C61.91,161.15 61.01,162.17 61.01,161.77 ZM 261.56 160.29 C261.02,158.87 261.14,158.75 262.12,159.73 C262.81,160.41 263.11,161.22 262.81,161.53 C262.50,161.83 261.94,161.28 261.56,160.29 ZM 8.03 160.50 C8.03,159.95 8.47,158.82 9.00,158.00 C9.53,157.18 9.97,156.95 9.97,157.50 C9.97,158.05 9.53,159.18 9.00,160.00 C8.47,160.82 8.03,161.05 8.03,160.50 ZM 48.00 159.00 C48.59,157.90 49.30,157.00 49.57,157.00 C49.85,157.00 49.59,157.90 49.00,159.00 C48.41,160.10 47.70,161.00 47.43,161.00 C47.15,161.00 47.41,160.10 48.00,159.00 ZM 186.37 155.29 C183.69,152.15 182.02,149.90 182.66,150.29 C184.06,151.15 192.39,161.00 191.71,161.00 C191.46,161.00 189.05,158.43 186.37,155.29 ZM 95.00 158.62 C95.00,158.41 95.79,157.63 96.75,156.87 C98.34,155.63 98.37,155.66 97.13,157.25 C95.82,158.92 95.00,159.45 95.00,158.62 ZM 86.50 156.00 C87.50,154.90 88.53,154.00 88.81,154.00 C89.08,154.00 88.50,154.90 87.50,156.00 C86.50,157.10 85.47,158.00 85.19,158.00 C84.92,158.00 85.50,157.10 86.50,156.00 ZM 193.81 151.75 C190.70,148.31 187.56,144.82 186.83,144.00 C186.10,143.18 187.45,144.30 189.83,146.50 C193.86,150.21 200.62,158.00 199.82,158.00 C199.62,158.00 196.92,155.19 193.81,151.75 ZM 259.56 156.29 C259.02,154.87 259.14,154.75 260.12,155.73 C260.81,156.41 261.11,157.22 260.81,157.53 C260.50,157.83 259.94,157.28 259.56,156.29 ZM 26.00 155.59 C26.00,154.56 31.08,146.00 31.69,146.00 C31.97,146.00 30.96,148.14 29.45,150.75 C26.33,156.16 26.00,156.62 26.00,155.59 ZM 101.00 151.50 C102.87,149.57 104.62,148.00 104.89,148.00 C105.17,148.00 103.87,149.57 102.00,151.50 C100.13,153.43 98.38,155.00 98.11,155.00 C97.83,155.00 99.13,153.43 101.00,151.50 ZM 14.00 148.00 C15.12,145.80 16.27,144.00 16.54,144.00 C16.82,144.00 16.12,145.80 15.00,148.00 C13.88,150.20 12.73,152.00 12.46,152.00 C12.18,152.00 12.88,150.20 14.00,148.00 ZM 67.00 151.62 C67.00,151.41 67.79,150.63 68.75,149.87 C70.34,148.63 70.37,148.66 69.13,150.25 C67.82,151.92 67.00,152.45 67.00,151.62 ZM 254.89 148.25 C249.88,140.00 241.22,129.02 232.61,120.00 L 223.54 110.50 L 232.35 119.00 C240.99,127.34 253.10,142.33 256.39,148.75 C258.66,153.18 257.68,152.86 254.89,148.25 ZM 53.00 150.00 C53.00,149.45 53.48,149.00 54.06,149.00 C54.64,149.00 54.84,149.45 54.50,150.00 C54.16,150.55 53.68,151.00 53.44,151.00 C53.20,151.00 53.00,150.55 53.00,150.00 ZM 96.50 145.00 C99.77,141.70 102.66,139.00 102.94,139.00 C103.21,139.00 100.77,141.70 97.50,145.00 C94.23,148.30 91.34,151.00 91.06,151.00 C90.79,151.00 93.23,148.30 96.50,145.00 ZM 177.44 144.75 C171.54,138.45 168.59,135.00 169.12,135.00 C169.38,135.00 172.41,138.15 175.86,142.00 C182.72,149.66 183.79,151.54 177.44,144.75 ZM 108.00 143.50 C109.87,141.57 111.62,140.00 111.89,140.00 C112.17,140.00 110.87,141.57 109.00,143.50 C107.13,145.43 105.38,147.00 105.11,147.00 C104.83,147.00 106.13,145.43 108.00,143.50 ZM 210.96 142.75 C209.10,140.41 208.37,139.14 209.34,139.91 C211.16,141.37 215.44,147.00 214.74,147.00 C214.52,147.00 212.81,145.09 210.96,142.75 ZM 34.96 140.95 C38.60,135.59 46.00,126.51 46.00,127.41 C46.00,127.96 43.72,130.92 34.69,142.04 C32.15,145.16 32.17,145.05 34.96,140.95 ZM 76.00 140.00 C78.30,137.25 80.70,134.69 81.34,134.29 C81.98,133.90 80.31,136.15 77.63,139.29 C74.95,142.43 72.54,145.00 72.29,145.00 C72.03,145.00 73.70,142.75 76.00,140.00 ZM 58.00 143.62 C58.00,143.41 58.79,142.63 59.75,141.87 C61.34,140.63 61.37,140.66 60.13,142.25 C58.82,143.92 58.00,144.45 58.00,143.62 ZM 20.00 138.00 C20.59,136.90 21.30,136.00 21.57,136.00 C21.85,136.00 21.59,136.90 21.00,138.00 C20.41,139.10 19.70,140.00 19.43,140.00 C19.15,140.00 19.41,139.10 20.00,138.00 ZM 62.50 138.00 C63.50,136.90 64.53,136.00 64.81,136.00 C65.08,136.00 64.50,136.90 63.50,138.00 C62.50,139.10 61.47,140.00 61.19,140.00 C60.92,140.00 61.50,139.10 62.50,138.00 ZM 216.52 131.25 C212.18,126.44 210.15,123.85 212.01,125.50 C213.87,127.15 216.32,129.62 217.45,131.00 C218.58,132.38 220.74,134.80 222.25,136.40 C224.81,139.09 225.43,140.00 224.71,140.00 C224.55,140.00 220.87,136.06 216.52,131.25 ZM 117.00 133.50 C118.87,131.57 120.62,130.00 120.89,130.00 C121.17,130.00 119.87,131.57 118.00,133.50 C116.13,135.43 114.38,137.00 114.11,137.00 C113.83,137.00 115.13,135.43 117.00,133.50 ZM 175.46 131.75 L 170.50 126.50 L 175.75 131.46 C178.64,134.19 181.00,136.55 181.00,136.71 C181.00,137.46 180.07,136.63 175.46,131.75 ZM 204.40 134.75 L 202.50 132.50 L 205.00 134.49 C206.38,135.58 207.69,136.60 207.92,136.74 C208.15,136.88 207.88,137.00 207.32,137.00 C206.77,137.00 205.45,135.99 204.40,134.75 ZM 68.96 130.75 C73.10,126.33 74.00,125.54 74.00,126.29 C74.00,126.45 71.86,128.59 69.25,131.04 L 64.50 135.50 L 68.96 130.75 ZM 23.00 133.62 C23.00,133.41 23.79,132.63 24.75,131.87 C26.34,130.63 26.37,130.66 25.13,132.25 C23.82,133.92 23.00,134.45 23.00,133.62 ZM 85.00 129.50 C86.87,127.57 88.62,126.00 88.89,126.00 C89.17,126.00 87.87,127.57 86.00,129.50 C84.13,131.43 82.38,133.00 82.11,133.00 C81.83,133.00 83.13,131.43 85.00,129.50 ZM 111.00 130.50 C112.29,129.12 113.57,128.00 113.85,128.00 C114.12,128.00 113.29,129.12 112.00,130.50 C110.71,131.88 109.43,133.00 109.15,133.00 C108.88,133.00 109.71,131.88 111.00,130.50 ZM 165.87 131.25 C164.63,129.66 164.66,129.63 166.25,130.87 C167.21,131.63 168.00,132.41 168.00,132.62 C168.00,133.45 167.18,132.92 165.87,131.25 ZM 194.44 123.25 C190.14,118.44 185.27,113.04 183.62,111.25 C181.96,109.46 180.87,108.00 181.19,108.00 C181.51,108.00 186.58,113.40 192.46,120.00 C198.34,126.60 202.95,132.00 202.70,132.00 C202.45,132.00 198.73,128.06 194.44,123.25 ZM 26.00 129.62 C26.00,129.41 26.79,128.63 27.75,127.87 C29.34,126.63 29.37,126.66 28.13,128.25 C26.82,129.92 26.00,130.45 26.00,129.62 ZM 124.00 125.50 C125.29,124.12 126.57,123.00 126.85,123.00 C127.12,123.00 126.29,124.12 125.00,125.50 C123.71,126.88 122.43,128.00 122.15,128.00 C121.88,128.00 122.71,126.88 124.00,125.50 ZM 161.87 126.25 C160.63,124.66 160.66,124.63 162.25,125.87 C163.92,127.18 164.45,128.00 163.62,128.00 C163.41,128.00 162.63,127.21 161.87,126.25 ZM 47.00 126.11 C47.00,125.75 50.48,122.09 54.74,117.97 C59.00,113.86 60.68,112.45 58.49,114.84 C51.96,121.94 47.00,126.81 47.00,126.11 ZM 74.00 124.72 C74.00,124.57 77.49,121.09 81.75,116.97 L 89.50 109.50 L 82.03 117.25 C75.08,124.45 74.00,125.46 74.00,124.72 ZM 89.00 124.69 C89.00,124.51 90.46,123.05 92.25,121.44 L 95.50 118.50 L 92.56 121.75 C89.83,124.78 89.00,125.46 89.00,124.69 ZM 119.78 120.50 C127.45,111.23 128.18,110.48 124.97,115.17 C123.21,117.74 120.40,121.11 118.71,122.67 C116.45,124.75 116.74,124.18 119.78,120.50 ZM 162.02 116.75 C156.26,109.83 144.99,89.48 145.01,86.07 C145.02,85.21 146.54,87.96 148.38,92.19 C153.06,102.90 156.34,108.36 163.15,116.75 C166.38,120.74 168.81,124.00 168.54,124.00 C168.27,124.00 165.33,120.74 162.02,116.75 ZM 129.00 119.50 C130.29,118.12 131.57,117.00 131.85,117.00 C132.12,117.00 131.29,118.12 130.00,119.50 C128.71,120.88 127.43,122.00 127.15,122.00 C126.88,122.00 127.71,120.88 129.00,119.50 ZM 37.53 116.75 C45.18,109.14 47.67,107.37 41.03,114.27 C37.47,117.97 34.27,121.00 33.91,121.00 C33.55,121.00 35.18,119.09 37.53,116.75 ZM 198.98 112.25 L 190.50 103.50 L 199.25 111.98 C207.38,119.85 208.46,121.00 207.73,121.00 C207.58,121.00 203.64,117.06 198.98,112.25 ZM 153.92 116.25 L 151.50 113.50 L 154.25 115.92 C155.76,117.26 157.00,118.50 157.00,118.67 C157.00,119.46 156.19,118.82 153.92,116.25 ZM 102.43 109.75 C105.69,106.04 108.49,103.00 108.66,103.00 C109.50,103.00 102.12,111.89 99.50,114.04 C97.85,115.39 99.17,113.46 102.43,109.75 ZM 132.00 115.62 C132.00,115.41 132.79,114.63 133.75,113.87 C135.34,112.63 135.37,112.66 134.13,114.25 C132.82,115.92 132.00,116.45 132.00,115.62 ZM 149.40 110.75 L 147.50 108.50 L 149.75 110.40 C150.99,111.45 152.00,112.47 152.00,112.65 C152.00,113.46 151.20,112.86 149.40,110.75 ZM 218.00 106.50 C215.57,104.03 213.81,102.00 214.08,102.00 C214.36,102.00 216.57,104.03 219.00,106.50 C221.43,108.97 223.19,111.00 222.92,111.00 C222.64,111.00 220.43,108.97 218.00,106.50 ZM 129.59 107.50 C130.49,106.12 131.39,105.00 131.59,105.00 C131.79,105.00 131.44,106.12 130.82,107.50 C130.19,108.88 129.29,110.00 128.82,110.00 C128.34,110.00 128.69,108.88 129.59,107.50 ZM 67.50 106.00 C68.50,104.90 69.53,104.00 69.81,104.00 C70.08,104.00 69.50,104.90 68.50,106.00 C67.50,107.10 66.47,108.00 66.19,108.00 C65.92,108.00 66.50,107.10 67.50,106.00 ZM 139.00 106.00 C139.59,104.90 140.30,104.00 140.57,104.00 C140.85,104.00 140.59,104.90 140.00,106.00 C139.41,107.10 138.70,108.00 138.43,108.00 C138.15,108.00 138.41,107.10 139.00,106.00 ZM 145.87 106.25 C144.63,104.66 144.66,104.63 146.25,105.87 C147.92,107.18 148.45,108.00 147.62,108.00 C147.41,108.00 146.63,107.21 145.87,106.25 ZM 235.40 105.75 L 233.50 103.50 L 235.75 105.40 C237.86,107.20 238.46,108.00 237.65,108.00 C237.47,108.00 236.45,106.99 235.40,105.75 ZM 178.40 104.75 L 176.50 102.50 L 178.75 104.40 C180.86,106.20 181.46,107.00 180.65,107.00 C180.47,107.00 179.45,105.99 178.40,104.75 ZM 51.73 103.88 C52.41,103.19 53.22,102.89 53.53,103.19 C53.83,103.50 53.28,104.06 52.29,104.44 C50.87,104.98 50.75,104.86 51.73,103.88 ZM 71.00 103.69 C71.00,103.51 72.46,102.05 74.25,100.44 L 77.50 97.50 L 74.56 100.75 C71.83,103.78 71.00,104.46 71.00,103.69 ZM 134.71 98.53 C136.18,95.52 137.56,93.22 137.76,93.43 C138.21,93.88 133.17,104.00 132.49,104.00 C132.23,104.00 133.23,101.54 134.71,98.53 ZM 224.50 97.31 C210.36,85.79 209.28,84.72 219.56,92.40 C228.09,98.78 234.41,104.23 232.90,103.92 C232.68,103.87 228.90,100.90 224.50,97.31 ZM 183.98 96.25 C178.13,89.87 165.00,71.32 165.00,69.43 C165.00,68.95 167.68,72.71 170.96,77.78 C174.24,82.85 177.39,87.00 177.96,87.00 C178.53,87.00 178.89,87.41 178.75,87.91 C178.61,88.41 181.34,92.01 184.81,95.91 C188.29,99.81 190.91,103.00 190.65,103.00 C190.39,103.00 187.39,99.96 183.98,96.25 ZM 96.00 101.69 C96.00,101.51 97.46,100.05 99.25,98.44 L 102.50 95.50 L 99.56 98.75 C96.83,101.78 96.00,102.46 96.00,101.69 ZM 111.44 98.67 C112.98,96.65 114.44,95.00 114.69,95.00 C115.38,95.00 111.05,100.85 109.77,101.64 C109.15,102.03 109.90,100.69 111.44,98.67 ZM 172.04 96.75 C169.77,93.86 167.26,90.71 166.46,89.75 C165.67,88.79 165.42,88.00 165.92,88.00 C166.41,88.00 168.54,90.36 170.66,93.24 C172.77,96.13 175.09,99.28 175.81,100.24 C176.53,101.21 176.90,102.00 176.64,102.00 C176.38,102.00 174.31,99.64 172.04,96.75 ZM 206.00 95.85 L 199.50 89.77 L 205.75 94.99 C211.27,99.59 213.78,102.07 212.81,101.97 C212.64,101.95 209.57,99.20 206.00,95.85 ZM 56.00 100.62 C56.00,100.41 56.79,99.63 57.75,98.87 C59.34,97.63 59.37,97.66 58.13,99.25 C56.82,100.92 56.00,101.45 56.00,100.62 ZM 60.00 97.62 C60.00,97.41 60.79,96.63 61.75,95.87 C63.34,94.63 63.37,94.66 62.13,96.25 C60.82,97.92 60.00,98.45 60.00,97.62 ZM 81.50 94.35 C83.15,92.70 89.90,86.22 96.50,79.96 C107.96,69.08 108.09,68.99 99.50,77.86 C94.55,82.97 87.80,89.44 84.50,92.25 C81.20,95.06 79.85,96.00 81.50,94.35 ZM 103.00 94.34 C103.00,93.80 104.24,92.26 105.75,90.92 L 108.50 88.50 L 106.00 91.50 C104.62,93.15 103.39,94.69 103.25,94.92 C103.11,95.15 103.00,94.89 103.00,94.34 ZM 65.00 93.62 C65.00,93.41 65.79,92.63 66.75,91.87 C68.34,90.63 68.37,90.66 67.13,92.25 C65.82,93.92 65.00,94.45 65.00,93.62 ZM 115.00 93.62 C115.00,93.41 115.79,92.63 116.75,91.87 C118.34,90.63 118.37,90.66 117.13,92.25 C115.82,93.92 115.00,94.45 115.00,93.62 ZM 138.03 91.50 C138.03,90.95 138.47,89.82 139.00,89.00 C139.53,88.18 139.97,87.95 139.97,88.50 C139.97,89.05 139.53,90.18 139.00,91.00 C138.47,91.82 138.03,92.05 138.03,91.50 ZM 70.00 89.62 C70.00,89.41 70.79,88.63 71.75,87.87 C73.34,86.63 73.37,86.66 72.13,88.25 C70.82,89.92 70.00,90.45 70.00,89.62 ZM 118.97 88.06 C119.54,86.99 120.51,85.81 121.11,85.43 C121.71,85.06 121.43,85.93 120.49,87.38 C118.49,90.43 117.45,90.90 118.97,88.06 ZM 193.95 85.25 L 190.50 81.50 L 194.49 85.00 C196.68,86.93 198.67,88.61 198.91,88.75 C199.14,88.89 198.90,89.00 198.36,89.00 C197.83,89.00 195.84,87.31 193.95,85.25 ZM 111.03 83.75 C112.85,81.14 114.50,79.00 114.70,79.00 C115.50,79.00 112.58,83.53 110.22,85.94 C108.36,87.85 108.56,87.30 111.03,83.75 ZM 74.00 86.64 C74.00,86.41 77.26,83.65 81.25,80.50 C86.00,76.74 87.12,76.10 84.48,78.63 C80.48,82.49 74.00,87.44 74.00,86.64 ZM 140.14 86.00 C140.14,85.18 140.53,83.60 141.00,82.50 C141.54,81.24 141.86,81.05 141.86,82.00 C141.86,82.82 141.47,84.40 141.00,85.50 C140.46,86.76 140.14,86.95 140.14,86.00 ZM 164.38 85.75 C163.98,85.06 162.94,83.39 162.07,82.04 C161.09,80.51 160.98,79.87 161.76,80.35 C163.05,81.15 166.42,87.00 165.58,87.00 C165.33,87.00 164.79,86.44 164.38,85.75 ZM 199.50 77.27 C194.55,73.03 187.43,66.16 183.67,61.99 C177.15,54.76 170.06,44.63 170.03,42.50 C170.02,41.95 171.22,43.53 172.68,46.00 C178.79,56.32 188.41,66.83 204.01,80.21 C207.03,82.79 209.27,84.93 209.00,84.95 C208.73,84.97 204.45,81.52 199.50,77.27 ZM 142.53 79.71 C142.10,78.72 142.03,77.63 142.38,77.29 C143.39,76.27 144.21,77.70 143.74,79.67 C143.33,81.42 143.27,81.42 142.53,79.71 ZM 125.79 76.24 C128.25,70.72 129.72,69.27 127.55,74.50 C126.64,76.70 125.44,78.95 124.89,79.50 C124.34,80.05 124.74,78.58 125.79,76.24 ZM 157.25 72.26 C155.57,68.54 153.92,64.38 153.59,63.00 L 152.99 60.50 L 154.18 63.00 C157.57,70.14 160.98,78.36 160.66,78.67 C160.47,78.87 158.93,75.98 157.25,72.26 ZM 184.73 77.02 C183.92,75.87 181.17,72.72 178.63,70.03 C176.08,67.34 174.00,64.90 174.00,64.61 C174.00,64.31 172.20,61.28 170.00,57.88 C167.80,54.47 166.01,51.20 166.01,50.59 C166.02,49.99 167.10,51.39 168.42,53.70 C171.61,59.27 179.41,70.09 181.68,72.11 C184.49,74.59 187.19,78.14 186.67,78.66 C186.42,78.92 185.54,78.18 184.73,77.02 ZM 116.00 76.00 C116.59,74.90 117.30,74.00 117.57,74.00 C117.85,74.00 117.59,74.90 117.00,76.00 C116.41,77.10 115.70,78.00 115.43,78.00 C115.15,78.00 115.41,77.10 116.00,76.00 ZM 98.07 65.50 C102.74,60.55 108.08,54.14 109.95,51.25 C113.43,45.85 114.99,44.26 112.88,48.25 C110.57,52.63 103.09,61.59 96.38,68.00 C90.47,73.65 90.69,73.32 98.07,65.50 ZM 119.00 71.00 C119.59,69.90 120.30,69.00 120.57,69.00 C120.85,69.00 120.59,69.90 120.00,71.00 C119.41,72.10 118.70,73.00 118.43,73.00 C118.15,73.00 118.41,72.10 119.00,71.00 ZM 129.07 69.79 C129.03,69.39 129.84,66.92 130.86,64.29 C131.89,61.65 133.29,57.11 133.98,54.20 C134.66,51.28 135.42,49.09 135.67,49.34 C136.33,50.00 133.26,61.21 131.06,66.17 C130.01,68.55 129.11,70.18 129.07,69.79 ZM 111.09 63.75 C112.88,61.14 114.50,59.00 114.70,59.00 C115.38,59.00 113.12,62.48 110.47,65.50 C108.48,67.77 108.63,67.35 111.09,63.75 ZM 162.95 65.91 C162.34,64.77 162.03,63.64 162.26,63.41 C162.49,63.18 163.19,64.12 163.82,65.50 C165.19,68.52 164.52,68.85 162.95,65.91 ZM 123.17 62.95 C123.75,61.27 124.42,60.08 124.64,60.31 C125.14,60.81 123.25,66.00 122.58,66.00 C122.32,66.00 122.58,64.63 123.17,62.95 ZM 159.10 56.53 C157.94,53.45 157.02,50.38 157.05,49.71 C157.08,49.05 158.18,51.41 159.50,54.96 C160.82,58.52 161.74,61.59 161.55,61.78 C161.35,61.98 160.25,59.62 159.10,56.53 ZM 151.16 56.14 C150.52,54.01 150.03,51.65 150.07,50.88 C150.11,50.12 150.81,51.69 151.63,54.36 C152.45,57.03 152.94,59.39 152.72,59.61 C152.50,59.83 151.80,58.27 151.16,56.14 ZM 116.50 55.00 C117.35,53.35 118.28,52.00 118.55,52.00 C118.83,52.00 118.35,53.35 117.50,55.00 C116.65,56.65 115.72,58.00 115.45,58.00 C115.17,58.00 115.65,56.65 116.50,55.00 ZM 126.09 55.50 C126.19,53.61 127.86,50.42 127.91,52.00 C127.94,52.83 127.53,54.17 127.00,55.00 C126.47,55.83 126.06,56.05 126.09,55.50 ZM 119.11 50.50 C119.13,49.95 120.01,47.70 121.07,45.50 C122.13,43.30 122.72,42.62 122.37,44.00 C121.67,46.83 119.06,52.03 119.11,50.50 ZM 128.08 48.42 C128.13,47.25 128.36,47.01 128.68,47.81 C128.97,48.53 128.94,49.40 128.60,49.73 C128.27,50.06 128.04,49.47 128.08,48.42 ZM 149.16 47.00 C149.16,45.62 149.38,45.06 149.66,45.75 C149.94,46.44 149.94,47.56 149.66,48.25 C149.38,48.94 149.16,48.38 149.16,47.00 ZM 164.16 46.46 C163.52,45.05 163.02,43.36 163.04,42.70 C163.06,42.04 163.74,43.03 164.55,44.90 C166.26,48.84 165.90,50.27 164.16,46.46 ZM 136.08 46.42 C136.13,45.25 136.36,45.01 136.68,45.81 C136.97,46.53 136.94,47.40 136.60,47.73 C136.27,48.06 136.04,47.47 136.08,46.42 ZM 129.08 44.42 C129.13,43.25 129.36,43.01 129.68,43.81 C129.97,44.53 129.94,45.40 129.60,45.73 C129.27,46.06 129.04,45.47 129.08,44.42 ZM 115.08 43.00 C116.54,39.94 117.00,39.37 117.00,40.64 C117.00,41.18 116.30,42.49 115.44,43.56 C113.98,45.39 113.96,45.36 115.08,43.00 ZM 155.08 43.42 C155.13,42.25 155.36,42.01 155.68,42.81 C155.97,43.53 155.94,44.40 155.60,44.73 C155.27,45.06 155.04,44.47 155.08,43.42 ZM 137.08 42.42 C137.13,41.25 137.36,41.01 137.68,41.81 C137.97,42.53 137.94,43.40 137.60,43.73 C137.27,44.06 137.04,43.47 137.08,42.42 ZM 148.16 42.00 C148.16,40.62 148.38,40.06 148.66,40.75 C148.94,41.44 148.94,42.56 148.66,43.25 C148.38,43.94 148.16,43.38 148.16,42.00 ZM 130.08 40.42 C130.13,39.25 130.36,39.01 130.68,39.81 C130.97,40.53 130.94,41.40 130.60,41.73 C130.27,42.06 130.04,41.47 130.08,40.42 ZM 123.08 39.42 C123.13,38.25 123.36,38.01 123.68,38.81 C123.97,39.53 123.94,40.40 123.60,40.73 C123.27,41.06 123.04,40.47 123.08,39.42 ZM 154.08 39.42 C154.13,38.25 154.36,38.01 154.68,38.81 C154.97,39.53 154.94,40.40 154.60,40.73 C154.27,41.06 154.04,40.47 154.08,39.42 ZM 162.08 39.42 C162.13,38.25 162.36,38.01 162.68,38.81 C162.97,39.53 162.94,40.40 162.60,40.73 C162.27,41.06 162.04,40.47 162.08,39.42 ZM 167.63 37.02 C166.73,34.79 166.02,32.41 166.05,31.73 C166.08,31.05 167.00,32.70 168.09,35.38 C169.18,38.07 169.89,40.45 169.66,40.67 C169.43,40.90 168.52,39.26 167.63,37.02 ZM 138.07 39.43 C137.97,37.92 141.14,28.81 141.61,29.28 C141.82,29.49 141.13,32.10 140.07,35.08 C139.01,38.06 138.11,40.02 138.07,39.43 ZM 117.16 38.50 C117.15,37.95 117.76,35.92 118.50,34.00 C119.24,32.08 119.86,31.17 119.88,32.00 C119.90,32.83 119.29,34.85 118.54,36.50 C117.78,38.15 117.16,39.05 117.16,38.50 ZM 131.08 36.42 C131.13,35.25 131.36,35.01 131.68,35.81 C131.97,36.53 131.94,37.40 131.60,37.73 C131.27,38.06 131.04,37.47 131.08,36.42 ZM 147.23 35.00 C147.23,33.08 147.44,32.29 147.69,33.25 C147.94,34.21 147.94,35.79 147.69,36.75 C147.44,37.71 147.23,36.92 147.23,35.00 ZM 124.19 34.50 C124.22,32.85 124.44,32.30 124.69,33.27 C124.95,34.24 124.93,35.59 124.66,36.27 C124.38,36.95 124.17,36.15 124.19,34.50 ZM 153.19 34.50 C153.22,32.85 153.44,32.30 153.69,33.27 C153.95,34.24 153.93,35.59 153.66,36.27 C153.38,36.95 153.17,36.15 153.19,34.50 ZM 161.19 34.50 C161.22,32.85 161.44,32.30 161.69,33.27 C161.95,34.24 161.93,35.59 161.66,36.27 C161.38,36.95 161.17,36.15 161.19,34.50 ZM 133.57 29.00 C133.94,27.62 134.66,25.83 135.17,25.00 C135.81,23.96 135.89,24.26 135.43,26.00 C135.06,27.38 134.34,29.17 133.83,30.00 C133.19,31.04 133.11,30.74 133.57,29.00 ZM 120.08 28.42 C120.13,27.25 120.36,27.01 120.68,27.81 C120.97,28.53 120.94,29.40 120.60,29.73 C120.27,30.06 120.04,29.47 120.08,28.42 ZM 160.27 26.00 C160.27,23.52 160.47,22.51 160.71,23.75 C160.94,24.99 160.94,27.01 160.71,28.25 C160.47,29.49 160.27,28.48 160.27,26.00 ZM 165.08 28.42 C165.13,27.25 165.36,27.01 165.68,27.81 C165.97,28.53 165.94,29.40 165.60,29.73 C165.27,30.06 165.04,29.47 165.08,28.42 ZM 152.37 18.50 C152.38,12.45 152.54,10.10 152.74,13.29 C152.94,16.47 152.94,21.42 152.74,24.29 C152.53,27.15 152.37,24.55 152.37,18.50 ZM 125.08 26.42 C125.13,25.25 125.36,25.01 125.68,25.81 C125.97,26.53 125.94,27.40 125.60,27.73 C125.27,28.06 125.04,27.47 125.08,26.42 ZM 142.04 27.86 C142.02,27.52 142.66,25.72 143.46,23.86 C144.26,22.01 144.92,21.17 144.93,22.00 C144.93,23.44 142.11,29.17 142.04,27.86 ZM 146.23 25.00 C146.23,23.08 146.44,22.29 146.69,23.25 C146.94,24.21 146.94,25.79 146.69,26.75 C146.44,27.71 146.23,26.92 146.23,25.00 ZM 121.16 24.00 C121.16,22.62 121.38,22.06 121.66,22.75 C121.94,23.44 121.94,24.56 121.66,25.25 C121.38,25.94 121.16,25.38 121.16,24.00 ZM 164.19 23.50 C164.22,21.85 164.44,21.30 164.69,22.27 C164.95,23.24 164.93,24.59 164.66,25.27 C164.38,25.95 164.17,25.15 164.19,23.50 ZM 136.03 22.71 C135.91,19.46 145.60,5.14 149.75,2.43 C151.49,1.30 150.83,2.31 147.94,5.21 C145.43,7.73 141.73,12.87 139.71,16.64 C137.70,20.41 136.04,23.14 136.03,22.71 ZM 124.19 19.50 C124.22,17.85 124.44,17.30 124.69,18.27 C124.95,19.24 124.93,20.59 124.66,21.27 C124.38,21.95 124.17,21.15 124.19,19.50 ZM 122.13 15.00 C122.08,10.69 122.29,9.89 123.11,11.31 C123.83,12.54 123.85,14.31 123.19,16.81 C122.21,20.49 122.21,20.48 122.13,15.00 ZM 161.16 18.00 C161.16,16.62 161.38,16.06 161.66,16.75 C161.94,17.44 161.94,18.56 161.66,19.25 C161.38,19.94 161.16,19.38 161.16,18.00 ZM 162.63 15.90 C162.29,14.20 162.44,12.06 162.97,11.15 C163.69,9.92 163.95,10.72 163.97,14.25 C164.00,19.73 163.52,20.33 162.63,15.90 ZM 153.00 3.50 C153.00,1.58 153.36,0.00 153.80,0.00 C154.24,0.00 154.41,1.58 154.19,3.50 C153.66,8.00 153.00,8.00 153.00,3.50 Z" fill="rgba(0,0,0,1)"/>
</g>
</svg>